<?xml version="1.0" standalone="no"?><!DOCTYPE svg PUBLIC "-//W3C//DTD SVG 1.1//EN" "http://www.w3.org/Graphics/SVG/1.1/DTD/svg11.dtd"><svg t="1577535969771" class="icon" viewBox="0 0 1024 1024" version="1.1" xmlns="http://www.w3.org/2000/svg" p-id="28632" xmlns:xlink="http://www.w3.org/1999/xlink" width="200" height="200"><defs><style type="text/css"></style></defs><path d="M925.866667 341.333333H85.333333h-4.266666c-25.6 4.266667-42.666667 25.6-38.4 51.2l72.533333 469.333334c4.266667 21.333333 21.333333 34.133333 42.666667 34.133333H853.333333c21.333333 0 38.4-17.066667 42.666667-34.133333l72.533333-469.333334V384c0-25.6-21.333333-42.666667-42.666666-42.666667z m-294.4 384h-256c-46.933333 0-85.333333-38.4-85.333334-85.333333 0-25.6 21.333333-51.2 68.266667-76.8 8.533333-4.266667 17.066667-12.8 21.333333-21.333333 8.533333-38.4 42.666667-72.533333 85.333334-72.533334 38.4 0 68.266667 25.6 81.066666 59.733334 4.266667 17.066667 21.333333 25.6 38.4 25.6h51.2c46.933333 0 85.333333 38.4 85.333334 85.333333s-38.4 85.333333-89.6 85.333333zM204.8 298.666667h597.333333c25.6 0 42.666667-17.066667 42.666667-42.666667V213.333333c0-25.6-17.066667-42.666667-42.666667-42.666666H512c-8.533333 0-12.8 0-17.066667-4.266667L426.666667 132.266667C422.4 128 418.133333 128 409.6 128H204.8c-25.6 0-42.666667 17.066667-42.666667 42.666667v85.333333c0 25.6 21.333333 42.666667 42.666667 42.666667z" p-id="28633" fill="#6395c1"></path></svg>
